<?xml version="1.0" encoding="UTF-8"?>
<svg version="1.1" xmlns="http://www.w3.org/2000/svg" width="500" height="500">
<path d="M0 0 C165 0 330 0 500 0 C500 165 500 330 500 500 C335 500 170 500 0 500 C0 335 0 170 0 0 Z " fill="#FEFEFE" transform="translate(0,0)"/>
<path d="M0 0 C1.07950424 -0.0071553 2.15900848 -0.01431061 3.27122498 -0.02168274 C4.46085342 -0.02437164 5.65048187 -0.02706055 6.87615967 -0.02983093 C8.74945702 -0.03968773 8.74945702 -0.03968773 10.66059875 -0.04974365 C14.80895219 -0.06951505 18.95726691 -0.08114779 23.10565186 -0.09111023 C24.53381113 -0.09515768 25.96197021 -0.0992746 27.39012909 -0.10346031 C34.10063835 -0.12251499 40.8111366 -0.13674459 47.52166772 -0.14507228 C55.26610609 -0.15484173 63.01025841 -0.18115213 70.75459599 -0.22157317 C76.7410949 -0.25174603 82.72751188 -0.26654231 88.71408534 -0.26985329 C92.28918693 -0.27220279 95.86398303 -0.28114927 99.43900299 -0.30631447 C103.42986677 -0.33395232 107.42035522 -0.32976041 111.41131592 -0.32279968 C113.1836132 -0.34201477 113.1836132 -0.34201477 114.99171448 -0.36161804 C121.23036112 -0.32190345 125.21347825 -0.15929713 129.90252686 4.14717102 C131.43519268 7.21250266 131.00529156 10.41471374 130.96502686 13.77217102 C130.96051514 14.47857727 130.95600342 15.18498352 130.95135498 15.91279602 C130.9395656 17.65762377 130.9216301 19.40240802 130.90252686 21.14717102 C131.89252686 20.65217102 131.89252686 20.65217102 132.90252686 20.14717102 C135.90633242 20.02342646 138.88599125 19.95871053 141.89080811 19.94404602 C143.23383247 19.93549591 143.23383247 19.93549591 144.60398865 19.92677307 C146.50125952 19.91731712 148.39854687 19.91078673 150.2958374 19.90693665 C153.19302216 19.89724463 156.08949347 19.86623271 158.98651123 19.83467102 C160.82960598 19.82813959 162.6727058 19.82288967 164.51580811 19.81904602 C165.38055252 19.80669922 166.24529694 19.79435242 167.13624573 19.78163147 C171.88712789 19.79914689 175.09928468 19.99675938 178.90252686 23.14717102 C182.88481565 27.21571709 184.59050078 31.82406039 186.53924561 37.06123352 C186.86415482 37.91268951 187.18906403 38.76414551 187.52381897 39.6414032 C188.55445405 42.34849807 189.57231371 45.06019543 190.59002686 47.77217102 C191.28516843 49.60321245 191.98112358 51.43394524 192.67791748 53.26435852 C199.03483484 69.99886835 199.03483484 69.99886835 199.11346436 78.24482727 C199.14151636 79.86658244 199.17018069 81.48832712 199.19940186 83.11006165 C199.24077832 85.66678252 199.27766669 88.2233038 199.30389404 90.78022766 C199.33140073 93.24800444 199.37724951 95.71489052 199.42596436 98.18232727 C199.43084366 99.33391075 199.43084366 99.33391075 199.43582153 100.50875854 C199.45701771 102.89109897 199.45701771 102.89109897 199.90252686 106.14717102 C200.89252686 106.80717102 201.88252686 107.46717102 202.90252686 108.14717102 C203.27484131 110.08662415 203.27484131 110.08662415 203.26580811 112.42842102 C203.26484131 113.69105774 203.26484131 113.69105774 203.26385498 114.97920227 C203.2477417 115.85963196 203.23162842 116.74006165 203.21502686 117.64717102 C203.21824951 118.52760071 203.22147217 119.4080304 203.22479248 120.31513977 C203.16949717 126.8802007 203.16949717 126.8802007 200.90252686 129.14717102 C197.86346436 129.34248352 197.86346436 129.34248352 194.27752686 129.27217102 C192.49475342 129.24510071 192.49475342 129.24510071 190.67596436 129.21748352 C189.76072998 129.1942804 188.84549561 129.17107727 187.90252686 129.14717102 C187.82002686 130.13717102 187.73752686 131.12717102 187.65252686 132.14717102 C186.80358673 137.67645207 185.12017993 142.2944482 180.74237061 145.95185852 C173.47185888 150.8934421 167.66569841 151.92661449 158.90252686 151.14717102 C152.62152459 149.41807255 148.53055069 145.42212672 144.90252686 140.14717102 C142.65982431 135.96758901 142.90252686 134.28647683 142.90252686 129.14717102 C106.60252686 129.14717102 70.30252686 129.14717102 32.90252686 129.14717102 C32.90252686 131.45717102 32.90252686 133.76717102 32.90252686 136.14717102 C30.36863473 142.6276562 25.42885132 147.38400879 19.27752686 150.45967102 C12.60400989 151.81909114 5.61548381 152.64378432 -0.47247314 149.08467102 C-5.61229199 145.30476258 -10.43828734 140.45207709 -12.09747314 134.14717102 C-12.22247314 131.33467102 -12.22247314 131.33467102 -12.09747314 129.14717102 C-12.72395752 129.17037415 -13.35044189 129.19357727 -13.99591064 129.21748352 C-14.81317627 129.2355304 -15.63044189 129.25357727 -16.47247314 129.27217102 C-17.28458252 129.29537415 -18.09669189 129.31857727 -18.93341064 129.34248352 C-21.09747314 129.14717102 -21.09747314 129.14717102 -23.09747314 127.14717102 C-23.35626221 125.2077179 -23.35626221 125.2077179 -23.36309814 122.86592102 C-23.36567627 122.02416321 -23.36825439 121.1824054 -23.37091064 120.31513977 C-23.35930908 118.99449524 -23.35930908 118.99449524 -23.34747314 117.64717102 C-23.35520752 116.76674133 -23.36294189 115.88631165 -23.37091064 114.97920227 C-23.36833252 114.13744446 -23.36575439 113.29568665 -23.36309814 112.42842102 C-23.36084229 111.65562805 -23.35858643 110.88283508 -23.35626221 110.08662415 C-23.09747314 108.14717102 -23.09747314 108.14717102 -21.09747314 106.14717102 C-18.12747314 106.14717102 -15.15747314 106.14717102 -12.09747314 106.14717102 C-12.09747314 88.65717102 -12.09747314 71.16717102 -12.09747314 53.14717102 C-15.39747314 53.14717102 -18.69747314 53.14717102 -22.09747314 53.14717102 C-22.47880613 51.15576542 -22.81072897 49.15438025 -23.09747314 47.14717102 C-22.09747314 46.14717102 -22.09747314 46.14717102 -19.81231689 46.04951477 C-18.43753174 46.06691711 -18.43753174 46.06691711 -17.03497314 46.08467102 C-16.11587158 46.09369446 -15.19677002 46.1027179 -14.24981689 46.11201477 C-13.53954346 46.12361633 -12.82927002 46.1352179 -12.09747314 46.14717102 C-12.09747314 43.50717102 -12.09747314 40.86717102 -12.09747314 38.14717102 C-15.39747314 38.14717102 -18.69747314 38.14717102 -22.09747314 38.14717102 C-22.47880613 36.15576542 -22.81072897 34.15438025 -23.09747314 32.14717102 C-22.09747314 31.14717102 -22.09747314 31.14717102 -19.81231689 31.04951477 C-18.43753174 31.06691711 -18.43753174 31.06691711 -17.03497314 31.08467102 C-16.11587158 31.09369446 -15.19677002 31.1027179 -14.24981689 31.11201477 C-13.53954346 31.12361633 -12.82927002 31.1352179 -12.09747314 31.14717102 C-12.09747314 28.50717102 -12.09747314 25.86717102 -12.09747314 23.14717102 C-15.39747314 23.14717102 -18.69747314 23.14717102 -22.09747314 23.14717102 C-22.47880613 21.15576542 -22.81072897 19.15438025 -23.09747314 17.14717102 C-22.09747314 16.14717102 -22.09747314 16.14717102 -19.81231689 16.04951477 C-18.43753174 16.06691711 -18.43753174 16.06691711 -17.03497314 16.08467102 C-16.11587158 16.09369446 -15.19677002 16.1027179 -14.24981689 16.11201477 C-13.53954346 16.12361633 -12.82927002 16.1352179 -12.09747314 16.14717102 C-12.18448486 15.27705383 -12.18448486 15.27705383 -12.27325439 14.38935852 C-12.52454869 10.03837726 -12.59202768 7.09736856 -9.72247314 3.64717102 C-6.20102089 0.29340697 -4.72677006 0.02145137 0 0 Z " fill="#1A77BC" transform="translate(160.09747314453125,173.8528289794922)"/>
<path d="M0 0 C1.06011292 -0.00281982 2.12022583 -0.00563965 3.21246338 -0.00854492 C4.97200348 -0.00550858 4.97200348 -0.00550858 6.76708984 -0.00241089 C7.99457947 -0.00416321 9.22206909 -0.00591553 10.48675537 -0.00772095 C13.86271013 -0.01137919 17.23860396 -0.010506 20.61455536 -0.00734186 C24.14017318 -0.00481792 27.66578833 -0.00715589 31.19140625 -0.00872803 C37.11312327 -0.01054962 43.03482784 -0.00814367 48.95654297 -0.00338745 C55.81219544 0.00205515 62.66781818 0.00029249 69.52346992 -0.00521386 C75.39946816 -0.00974527 81.27545742 -0.0103954 87.15145683 -0.00777519 C90.66536827 -0.00621257 94.17926572 -0.00601823 97.69317627 -0.00931168 C101.60845098 -0.01272468 105.52369211 -0.00800019 109.43896484 -0.00241089 C110.61199158 -0.00443512 111.78501831 -0.00645935 112.99359131 -0.00854492 C114.58376068 -0.00431519 114.58376068 -0.00431519 116.20605469 0 C117.1330014 0.00037703 118.05994812 0.00075405 119.01498413 0.0011425 C121.10302734 0.12698364 121.10302734 0.12698364 122.10302734 1.12698364 C122.19832346 4.14048602 122.22854638 7.1310247 122.21655273 10.14480591 C122.21669876 11.09104828 122.21684479 12.03729065 122.21699524 13.01220703 C122.21629571 16.15595756 122.20850143 19.29964965 122.20068359 22.44338989 C122.19881956 24.61672432 122.19739559 26.79005917 122.19639587 28.96339417 C122.19256956 34.6959956 122.18273831 40.42857187 122.17169189 46.16116333 C122.16148021 52.00588643 122.15689878 57.85061358 122.15185547 63.69534302 C122.14111614 75.17256764 122.12403836 86.64977355 122.10302734 98.12698364 C119.46302734 98.12698364 116.82302734 98.12698364 114.10302734 98.12698364 C114.10302734 83.60698364 114.10302734 69.08698364 114.10302734 54.12698364 C101.23302734 53.63198364 101.23302734 53.63198364 88.10302734 53.12698364 C88.04244141 50.03452271 87.98185547 46.94206177 87.91943359 43.75588989 C87.85769626 40.77401148 87.79428703 37.792173 87.73071289 34.81033325 C87.687294 32.73159307 87.64562423 30.65281561 87.60571289 28.57400513 C87.54817813 25.59285219 87.48443616 22.61188815 87.41943359 19.63088989 C87.4027211 18.69547867 87.38600861 17.76006744 87.36878967 16.79631042 C87.33887184 15.50508522 87.33887184 15.50508522 87.30834961 14.18777466 C87.29280533 13.42610489 87.27726105 12.66443512 87.26124573 11.87968445 C87.28923406 10.09963358 87.28923406 10.09963358 86.10302734 9.12698364 C84.32310811 9.0332774 82.53945995 9.00954093 80.75708008 9.01345825 C79.04541908 9.01357155 79.04541908 9.01357155 77.29917908 9.01368713 C75.43671288 9.02142906 75.43671288 9.02142906 73.53662109 9.02932739 C72.27286148 9.03074234 71.00910187 9.03215729 69.70704651 9.03361511 C66.34177845 9.03827782 62.97657745 9.04726884 59.61132812 9.05831909 C56.17953076 9.06853518 52.74772627 9.07316786 49.31591797 9.07815552 C42.5782498 9.08836101 35.84069964 9.10793273 29.10302734 9.12698364 C28.77302734 23.64698364 28.44302734 38.16698364 28.10302734 53.12698364 C15.66552734 53.56448364 15.66552734 53.56448364 11.73803711 53.69509888 C10.72539795 53.73320679 9.71275879 53.7713147 8.66943359 53.81057739 C7.1062439 53.86556396 7.1062439 53.86556396 5.51147461 53.92166138 C3.15304474 53.86213705 3.15304474 53.86213705 2.10302734 55.12698364 C1.98117591 56.47682112 1.92535904 57.83273066 1.89770508 59.18777466 C1.87775986 60.04859146 1.85781464 60.90940826 1.83726501 61.79631042 C1.82055252 62.73172165 1.80384003 63.66713287 1.78662109 64.63088989 C1.76584 65.58390488 1.7450589 66.53691986 1.72364807 67.51881409 C1.65804557 70.57562774 1.59921817 73.63253021 1.54052734 76.68948364 C1.49735228 78.75655027 1.45373834 80.82360778 1.40966797 82.89065552 C1.30235333 87.9693396 1.20111644 93.04811334 1.10302734 98.12698364 C-1.20697266 98.12698364 -3.51697266 98.12698364 -5.89697266 98.12698364 C-5.89697266 80.63698364 -5.89697266 63.14698364 -5.89697266 45.12698364 C-2.59697266 45.12698364 0.70302734 45.12698364 4.10302734 45.12698364 C4.10302734 42.81698364 4.10302734 40.50698364 4.10302734 38.12698364 C0.80302734 38.12698364 -2.49697266 38.12698364 -5.89697266 38.12698364 C-5.89697266 35.48698364 -5.89697266 32.84698364 -5.89697266 30.12698364 C2.51802734 29.63198364 2.51802734 29.63198364 11.10302734 29.12698364 C11.10302734 27.47698364 11.10302734 25.82698364 11.10302734 24.12698364 C5.49302734 23.79698364 -0.11697266 23.46698364 -5.89697266 23.12698364 C-5.89697266 20.48698364 -5.89697266 17.84698364 -5.89697266 15.12698364 C4.49802734 14.63198364 4.49802734 14.63198364 15.10302734 14.12698364 C15.10302734 12.47698364 15.10302734 10.82698364 15.10302734 9.12698364 C8.17302734 8.79698364 1.24302734 8.46698364 -5.89697266 8.12698364 C-5.89697266 0.00239853 -5.89697266 0.00239853 0 0 Z " fill="#F9FBFD" transform="translate(161.89697265625,181.87301635742188)"/>
<path d="M0 0 C0.80610718 -0.0038269 1.61221436 -0.00765381 2.44274902 -0.01159668 C4.14397432 -0.0143139 5.84524153 -0.0069659 7.54638672 0.00976562 C10.14775896 0.0311801 12.74636972 0.00995981 15.34765625 -0.015625 C17.00261025 -0.01298169 18.65756254 -0.00785663 20.3125 0 C21.47670471 -0.01214539 21.47670471 -0.01214539 22.66442871 -0.02453613 C26.15297269 0.03592089 28.25563058 0.24072932 31.11523438 2.31445312 C32.65625 4.53125 32.65625 4.53125 33.65625 8.53125 C21.44625 8.86125 9.23625 9.19125 -3.34375 9.53125 C-3.36665785 14.92477589 -3.38658526 20.31813421 -3.39868164 25.71166992 C-3.40372231 27.54793875 -3.41055477 29.38420354 -3.41918945 31.22045898 C-3.43126672 33.85401401 -3.43698081 36.48751616 -3.44140625 39.12109375 C-3.44656754 39.94713608 -3.45172882 40.77317841 -3.45704651 41.62425232 C-3.45724205 43.59361368 -3.40579152 45.56286614 -3.34375 47.53125 C-1.70415763 49.17084237 0.1896938 48.69767287 2.45141602 48.73657227 C3.98289024 48.7664901 3.98289024 48.7664901 5.54530334 48.79701233 C7.21090553 48.82208107 7.21090553 48.82208107 8.91015625 48.84765625 C10.04073959 48.86843735 11.17132294 48.88921844 12.33616638 48.91062927 C15.96362985 48.97624797 19.59116833 49.03506677 23.21875 49.09375 C25.67123186 49.13692351 28.123706 49.1805374 30.57617188 49.22460938 C36.60278684 49.33194188 42.62947757 49.43317422 48.65625 49.53125 C48.65625 54.48125 48.65625 59.43125 48.65625 64.53125 C44.03625 64.53125 39.41625 64.53125 34.65625 64.53125 C33.99625 66.18125 33.33625 67.83125 32.65625 69.53125 C31.00625 72.83125 29.35625 76.13125 27.65625 79.53125 C14.45625 79.53125 1.25625 79.53125 -12.34375 79.53125 C-12.50418524 60.97424088 -12.50418524 60.97424088 -12.5390625 53.06640625 C-12.56297768 47.66959919 -12.59127432 42.27306348 -12.64550781 36.87646484 C-12.68895719 32.52574947 -12.71288525 28.17532507 -12.72325897 23.82440948 C-12.73065202 22.1641812 -12.74508898 20.50396891 -12.76667023 18.84386444 C-12.7956932 16.51893151 -12.79970663 14.19520201 -12.79785156 11.87011719 C-12.81223267 11.1831929 -12.82661377 10.49626862 -12.84143066 9.78852844 C-12.81304045 6.50189301 -12.52582465 4.77781834 -10.55206299 2.10491943 C-7.23529824 -0.25864557 -3.9234361 -0.04093064 0 0 Z " fill="#F7FAFC" transform="translate(303.34375,200.46875)"/>
<path d="M0 0 C2.64 0 5.28 0 8 0 C8.33 4.62 8.66 9.24 9 14 C13.47920597 14.02682159 17.95825351 14.04675177 22.4375 14.0625 C23.71689453 14.07087891 24.99628906 14.07925781 26.31445312 14.08789062 C27.52939453 14.09111328 28.74433594 14.09433594 29.99609375 14.09765625 C31.12200928 14.10289307 32.2479248 14.10812988 33.40795898 14.11352539 C35.92970871 14.29545448 35.92970871 14.29545448 37 13 C37.23481693 10.81707226 37.41363323 8.62796826 37.5625 6.4375 C37.64628906 5.23996094 37.73007813 4.04242188 37.81640625 2.80859375 C37.90728516 1.41833984 37.90728516 1.41833984 38 0 C40.31 0 42.62 0 45 0 C45 12.54 45 25.08 45 38 C30.15 38 15.3 38 0 38 C0 25.46 0 12.92 0 0 Z " fill="#F8FBFD" transform="translate(197,197)"/>
<path d="M0 0 C2.31 0 4.62 0 7 0 C7.33 4.95 7.66 9.9 8 15 C17.24 14.67 26.48 14.34 36 14 C36.33 9.38 36.66 4.76 37 0 C39.64 0 42.28 0 45 0 C45 12.54 45 25.08 45 38 C30.15 38 15.3 38 0 38 C0 25.46 0 12.92 0 0 Z " fill="#F6F9FC" transform="translate(224,242)"/>
<path d="M0 0 C2.31 0 4.62 0 7 0 C7.06058594 0.92683594 7.12117187 1.85367188 7.18359375 2.80859375 C7.26738281 4.00613281 7.35117188 5.20367187 7.4375 6.4375 C7.51871094 7.63246094 7.59992188 8.82742187 7.68359375 10.05859375 C7.67656114 12.88570244 7.67656114 12.88570244 9 14 C10.98757028 14.09983058 12.9786752 14.13080753 14.96875 14.1328125 C16.78439453 14.13474609 16.78439453 14.13474609 18.63671875 14.13671875 C20.54904297 14.13091797 20.54904297 14.13091797 22.5 14.125 C23.77488281 14.12886719 25.04976562 14.13273437 26.36328125 14.13671875 C27.57371094 14.13542969 28.78414062 14.13414062 30.03125 14.1328125 C31.15080078 14.13168457 32.27035156 14.13055664 33.42382812 14.12939453 C35.93141802 14.29216368 35.93141802 14.29216368 37 13 C37.23481693 10.81707226 37.41363323 8.62796826 37.5625 6.4375 C37.64628906 5.23996094 37.73007813 4.04242188 37.81640625 2.80859375 C37.90728516 1.41833984 37.90728516 1.41833984 38 0 C40.31 0 42.62 0 45 0 C45 12.54 45 25.08 45 38 C30.15 38 15.3 38 0 38 C0 25.46 0 12.92 0 0 Z " fill="#FAFCFD" transform="translate(171,242)"/>
<path d="M0 0 C10.89 0 21.78 0 33 0 C35.475 5.94 35.475 5.94 38 12 C39.64904478 15.92244168 39.64904478 15.92244168 41.30078125 19.84375 C42 22 42 22 42 26 C28.14 26 14.28 26 0 26 C0 17.42 0 8.84 0 0 Z " fill="#FDFEFE" transform="translate(307,216)"/>
<path d="M0 0 C3.76072285 2.73507117 5.91073164 5.7398143 7.75 10 C8.47210293 15.23524622 7.62849072 18.58631423 4.75 23 C1.04675825 26.75383248 -2.16552541 28.79956975 -7.5 29.3125 C-12.63174933 28.88485422 -16.140592 27.39479849 -19.578125 23.4921875 C-22.58820595 18.93467058 -23.20619279 14.34687398 -22.25 9 C-17.52704974 -0.62755245 -9.76035883 -3.00318733 0 0 Z " fill="#F6F9FC" transform="translate(178.25,289)"/>
<path d="M0 0 C3.32785277 2.21856851 6.04480635 4.25651599 7.8125 7.875 C8.82730442 13.76278033 8.25638036 18.8873112 4.8125 23.875 C0.38481239 27.97061104 -3.04629691 29.23110702 -9.125 29.1640625 C-13.55100884 28.54375066 -17.44351583 25.30498021 -20.1875 21.875 C-22.32961402 17.81625765 -22.65824486 14.42553365 -22.1875 9.875 C-20.47534381 4.98458979 -17.75130823 1.83536619 -13.11328125 -0.46875 C-8.53694208 -2.02823272 -4.56555397 -1.61137199 0 0 Z " fill="#F6FAFC" transform="translate(332.1875,289.125)"/>
<path d="M0 0 C31.68 0 63.36 0 96 0 C96 2.31 96 4.62 96 7 C65.64 7 35.28 7 4 7 C2.02 3.535 2.02 3.535 0 0 Z " fill="#FEFEFE" transform="translate(188,288)"/>
<path d="M0 0 C2 1.625 2 1.625 3 4 C2.87988224 7.42335626 2.60726153 9.95416069 0.875 12.9375 C-2.18452459 14.6712306 -4.56817525 14.42145216 -8 14 C-10.4375 12.4375 -10.4375 12.4375 -12 10 C-12.5625 6.5 -12.5625 6.5 -12 3 C-8.33340589 -1.4443565 -5.38867153 -1.59664341 0 0 Z " fill="#1C78BC" transform="translate(330,296)"/>
<path d="M0 0 C4.93731454 1.46290801 4.93731454 1.46290801 6.375 4 C6.87073337 7.89504791 6.95516848 10.09493717 4.8125 13.4375 C1.40780512 15.61999672 -0.65930012 15.63734462 -4.625 15 C-7.28606976 12.61186047 -8.40349624 10.98446115 -9.1875 7.5 C-8.02254303 2.32241345 -5.23369904 0 0 0 Z " fill="#1C78BC" transform="translate(171.625,295)"/>
<path d="M0 0 C0.88494141 -0.01224609 1.76988281 -0.02449219 2.68164062 -0.03710938 C3.52791016 -0.03904297 4.37417969 -0.04097656 5.24609375 -0.04296875 C6.02525146 -0.04707764 6.80440918 -0.05118652 7.60717773 -0.05541992 C9.5625 0.1875 9.5625 0.1875 11.5625 2.1875 C11.3125 4.75 11.3125 4.75 10.5625 7.1875 C7.29438198 8.82155901 3.71250593 8.37203757 0.125 8.375 C-0.65166016 8.38724609 -1.42832031 8.39949219 -2.22851562 8.41210938 C-6.14982309 8.42224195 -8.10368745 8.4100417 -11.4375 6.1875 C-10.07087085 -1.42657667 -7.05519871 0.00511617 0 0 Z " fill="#257DBF" transform="translate(193.4375,264.8125)"/>
<path d="M0 0 C0.89460937 -0.00128906 1.78921875 -0.00257813 2.7109375 -0.00390625 C3.65195313 -0.00003906 4.59296875 0.00382813 5.5625 0.0078125 C6.97402344 0.00201172 6.97402344 0.00201172 8.4140625 -0.00390625 C9.75597656 -0.00197266 9.75597656 -0.00197266 11.125 0 C11.95128906 0.00112793 12.77757812 0.00225586 13.62890625 0.00341797 C15.5625 0.1328125 15.5625 0.1328125 16.5625 1.1328125 C16.8125 3.5703125 16.8125 3.5703125 16.5625 6.1328125 C12.82582113 8.62393175 9.88379024 8.42894727 5.5625 8.3828125 C4.47582031 8.39441406 4.47582031 8.39441406 3.3671875 8.40625 C-0.43138493 8.39223313 -2.20587084 8.28723194 -5.4375 6.1328125 C-5.6875 3.5703125 -5.6875 3.5703125 -5.4375 1.1328125 C-3.84812444 -0.45656306 -2.19850154 0.00300107 0 0 Z " fill="#227CBE" transform="translate(214.4375,219.8671875)"/>
<path d="M0 0 C0.77915771 0.00410889 1.55831543 0.00821777 2.36108398 0.01245117 C3.20735352 0.01438477 4.05362305 0.01631836 4.92553711 0.01831055 C5.81047852 0.03055664 6.69541992 0.04280273 7.60717773 0.05541992 C8.49598633 0.05606445 9.38479492 0.05670898 10.30053711 0.05737305 C16.90446676 0.10270895 16.90446676 0.10270895 18.04467773 1.24291992 C18.16967773 3.74291992 18.16967773 3.74291992 18.04467773 6.24291992 C17.04467773 7.24291992 17.04467773 7.24291992 15.09521484 7.35644531 C14.26256104 7.3512085 13.42990723 7.34597168 12.57202148 7.34057617 C11.67290039 7.33735352 10.7737793 7.33413086 9.84741211 7.33081055 C8.90188477 7.32243164 7.95635742 7.31405273 6.98217773 7.30541992 C6.0327832 7.3009082 5.08338867 7.29639648 4.10522461 7.29174805 C1.75164708 7.27992102 -0.60180704 7.26344018 -2.95532227 7.24291992 C-3.58032227 4.86791992 -3.58032227 4.86791992 -3.95532227 2.24291992 C-1.95532227 0.24291992 -1.95532227 0.24291992 0 0 Z " fill="#1674BA" transform="translate(238.955322265625,264.757080078125)"/>
<path d="M0 0 C5.28 0 10.56 0 16 0 C16 2.64 16 5.28 16 8 C10.72 8 5.44 8 0 8 C0 5.36 0 2.72 0 0 Z " fill="#E3EEF7" transform="translate(212,197)"/>
<path d="M0 0 C1.12535156 0.00580078 1.12535156 0.00580078 2.2734375 0.01171875 C3.02367187 0.00785156 3.77390625 0.00398438 4.546875 0 C10.14682697 0.01010822 10.14682697 0.01010822 11.2734375 1.13671875 C11.3984375 3.63671875 11.3984375 3.63671875 11.2734375 6.13671875 C10.2734375 7.13671875 10.2734375 7.13671875 6.67578125 7.234375 C5.18746883 7.22770095 3.69917318 7.21574058 2.2109375 7.19921875 C1.45232422 7.19470703 0.69371094 7.19019531 -0.08789062 7.18554688 C-1.96748121 7.17372555 -3.84703149 7.15578953 -5.7265625 7.13671875 C-6.10789549 5.14531315 -6.43981832 3.14392798 -6.7265625 1.13671875 C-4.90540247 -0.68444128 -2.41984486 0.00436795 0 0 Z " fill="#1675BB" transform="translate(309.7265625,257.86328125)"/>
<path d="M0 0 C4.95 0 9.9 0 15 0 C15 2.31 15 4.62 15 7 C10.05 7 5.1 7 0 7 C0 4.69 0 2.38 0 0 Z " fill="#FBFCFD" transform="translate(239,243)"/>
<path d="M0 0 C4.95 0 9.9 0 15 0 C15 2.31 15 4.62 15 7 C10.05 7 5.1 7 0 7 C0 4.69 0 2.38 0 0 Z " fill="#FFFFFF" transform="translate(186,243)"/>
<path d="M0 0 C5.28 0 10.56 0 16 0 C14.68 2.31 13.36 4.62 12 7 C8.04 7 4.08 7 0 7 C0 4.69 0 2.38 0 0 Z " fill="#FDFEFE" transform="translate(292,288)"/>
<path d="M0 0 C3.3 0 6.6 0 10 0 C10 2.31 10 4.62 10 7 C5.71 7 1.42 7 -3 7 C-2.01 4.69 -1.02 2.38 0 0 Z " fill="#F7FAFC" transform="translate(342,273)"/>
<path d="M0 0 C3.96 0 7.92 0 12 0 C12 2.31 12 4.62 12 7 C9.03 7 6.06 7 3 7 C2.01 4.69 1.02 2.38 0 0 Z " fill="#FBFCFD" transform="translate(343,288)"/>
<path d="M0 0 C2.64 0 5.28 0 8 0 C6.125 4.75 6.125 4.75 5 7 C3.35 7 1.7 7 0 7 C0 4.69 0 2.38 0 0 Z " fill="#FAFCFD" transform="translate(145,288)"/>
</svg>
